<svg xmlns="http://www.w3.org/2000/svg" version="1.1" xmlns:xlink="http://www.w3.org/1999/xlink" xmlns:svgjs="http://svgjs.com/svgjs" width="1440" height="560" preserveAspectRatio="none" viewBox="0 0 1440 560"><g mask="url(&quot;#SvgjsMask1847&quot;)" fill="none"><g mask="url(&quot;#SvgjsMask1849&quot;)"><path d="M726 114L714 126L714 138L714 150L714 162M726 30L714 42L714 54L714 66M726 90L714 102L714 114M726 -6L726 6L726 18L726 30L726 42L726 54L726 66L726 78L726 90L726 102L726 114L726 126L738 138" stroke="url(#SvgjsLinearGradient1848)" stroke-width="2"></path><path d="M735 138 a3 3 0 1 0 6 0 a3 3 0 1 0 -6 0zM711 162 a3 3 0 1 0 6 0 a3 3 0 1 0 -6 0zM711 66 a3 3 0 1 0 6 0 a3 3 0 1 0 -6 0zM711 114 a3 3 0 1 0 6 0 a3 3 0 1 0 -6 0z" fill="url(#SvgjsLinearGradient1848)"></path><path d="M714 6L714 18L714 30M714 -6L714 6L702 18L702 30L702 42L702 54L702 66" stroke="url(#SvgjsLinearGradient1848)" stroke-width="2"></path><path d="M699 66 a3 3 0 1 0 6 0 a3 3 0 1 0 -6 0zM711 30 a3 3 0 1 0 6 0 a3 3 0 1 0 -6 0z" fill="url(#SvgjsLinearGradient1848)"></path><path d="M750 150L738 162M750 174L738 186L738 198L738 210L738 222L738 234L738 246L738 258L738 270M750 198L750 210L750 222L750 234L750 246M762 210L762 222L762 234L762 246M738 -6L738 6L738 18L738 30L738 42L738 54L738 66L738 78L738 90L738 102L738 114L738 126L750 138L750 150L750 162L750 174L750 186L750 198L762 210L774 222L774 234" stroke="url(#SvgjsLinearGradient1848)" stroke-width="2"></path><path d="M771 234 a3 3 0 1 0 6 0 a3 3 0 1 0 -6 0zM735 162 a3 3 0 1 0 6 0 a3 3 0 1 0 -6 0zM735 270 a3 3 0 1 0 6 0 a3 3 0 1 0 -6 0zM747 246 a3 3 0 1 0 6 0 a3 3 0 1 0 -6 0zM759 246 a3 3 0 1 0 6 0 a3 3 0 1 0 -6 0z" fill="url(#SvgjsLinearGradient1848)"></path><path d="M678 294L690 306M690 186L702 198L714 210L714 222L714 234M702 126L690 138M690 150L702 162L702 174L702 186L714 198L726 210L726 222M690 210L690 222L690 234M702 114L690 126M690 78L702 90M702 -6L702 6L690 18L690 30L690 42L690 54L690 66L690 78L690 90L702 102L702 114L702 126L702 138L690 150L690 162L690 174L690 186L690 198L690 210L678 222L678 234L678 246L678 258L678 270L678 282L678 294L678 306L678 318L678 330L678 342" stroke="url(#SvgjsLinearGradient1848)" stroke-width="2"></path><path d="M675 342 a3 3 0 1 0 6 0 a3 3 0 1 0 -6 0zM687 306 a3 3 0 1 0 6 0 a3 3 0 1 0 -6 0zM711 234 a3 3 0 1 0 6 0 a3 3 0 1 0 -6 0zM687 138 a3 3 0 1 0 6 0 a3 3 0 1 0 -6 0zM723 222 a3 3 0 1 0 6 0 a3 3 0 1 0 -6 0zM687 234 a3 3 0 1 0 6 0 a3 3 0 1 0 -6 0zM687 126 a3 3 0 1 0 6 0 a3 3 0 1 0 -6 0zM699 90 a3 3 0 1 0 6 0 a3 3 0 1 0 -6 0z" fill="url(#SvgjsLinearGradient1848)"></path><path d="M786 270L786 282L786 294L786 306L786 318L786 330M774 342L774 354L774 366L774 378L774 390L774 402L774 414M810 414L822 426L822 438L822 450L822 462L822 474L822 486L822 498L822 510L822 522L822 534M774 318L762 330L762 342L762 354L762 366L762 378L762 390L762 402L762 414L762 426L762 438L762 450L750 462L738 474L738 486L738 498L738 510L738 522L738 534M774 306L762 318L750 330L750 342L750 354L750 366L750 378L750 390L750 402M774 282L762 294M786 246L798 258L798 270L798 282L798 294M786 222L798 234L798 246M762 186L774 198L786 210L798 222L810 234L810 246M798 402L798 414L798 426L798 438L798 450M750 -6L750 6L750 18L750 30L750 42L750 54L750 66L750 78L750 90L750 102L750 114L750 126L762 138L762 150L762 162L762 174L762 186L762 198L774 210L786 222L786 234L786 246L786 258L786 270L774 282L774 294L774 306L774 318L774 330L774 342L786 354L798 366L798 378L798 390L798 402L810 414L810 426L810 438L810 450L810 462L810 474L810 486L810 498" stroke="url(#SvgjsLinearGradient1848)" stroke-width="2"></path><path d="M807 498 a3 3 0 1 0 6 0 a3 3 0 1 0 -6 0zM783 330 a3 3 0 1 0 6 0 a3 3 0 1 0 -6 0zM771 414 a3 3 0 1 0 6 0 a3 3 0 1 0 -6 0zM819 534 a3 3 0 1 0 6 0 a3 3 0 1 0 -6 0zM735 534 a3 3 0 1 0 6 0 a3 3 0 1 0 -6 0zM747 402 a3 3 0 1 0 6 0 a3 3 0 1 0 -6 0zM759 294 a3 3 0 1 0 6 0 a3 3 0 1 0 -6 0zM795 294 a3 3 0 1 0 6 0 a3 3 0 1 0 -6 0zM795 246 a3 3 0 1 0 6 0 a3 3 0 1 0 -6 0zM807 246 a3 3 0 1 0 6 0 a3 3 0 1 0 -6 0zM795 450 a3 3 0 1 0 6 0 a3 3 0 1 0 -6 0z" fill="url(#SvgjsLinearGradient1848)"></path><path d="M666 294L654 306L654 318L654 330L654 342L654 354L654 366L642 378L642 390L642 402M666 282L654 294M678 186L666 198L666 210M666 270L654 282M666 258L654 270M666 234L654 246L654 258M690 -6L690 6L678 18L678 30L678 42L678 54L678 66L678 78L678 90L678 102L678 114L678 126L678 138L678 150L678 162L678 174L678 186L678 198L678 210L666 222L666 234L666 246L666 258L666 270L666 282L666 294L666 306L666 318L666 330L666 342" stroke="url(#SvgjsLinearGradient1848)" stroke-width="2"></path><path d="M663 342 a3 3 0 1 0 6 0 a3 3 0 1 0 -6 0zM639 402 a3 3 0 1 0 6 0 a3 3 0 1 0 -6 0zM651 294 a3 3 0 1 0 6 0 a3 3 0 1 0 -6 0zM663 210 a3 3 0 1 0 6 0 a3 3 0 1 0 -6 0zM651 282 a3 3 0 1 0 6 0 a3 3 0 1 0 -6 0zM651 270 a3 3 0 1 0 6 0 a3 3 0 1 0 -6 0zM651 258 a3 3 0 1 0 6 0 a3 3 0 1 0 -6 0z" fill="url(#SvgjsLinearGradient1848)"></path><path d="M774 138L786 150L786 162L786 174L786 186M762 -6L762 6L762 18L762 30L762 42L762 54L762 66L762 78L762 90L762 102L762 114L762 126L774 138L774 150L774 162L774 174" stroke="url(#SvgjsLinearGradient1848)" stroke-width="2"></path><path d="M771 174 a3 3 0 1 0 6 0 a3 3 0 1 0 -6 0zM783 186 a3 3 0 1 0 6 0 a3 3 0 1 0 -6 0z" fill="url(#SvgjsLinearGradient1848)"></path><path d="M654 210L642 222M666 162L666 174M654 222L654 234M678 -6L678 6L666 18L666 30L666 42L666 54L666 66L666 78L666 90L666 102L666 114L666 126L666 138L666 150L666 162L654 174L654 186L654 198L654 210L654 222L642 234L642 246L642 258L642 270L642 282L642 294L642 306" stroke="url(#SvgjsLinearGradient1848)" stroke-width="2"></path><path d="M639 306 a3 3 0 1 0 6 0 a3 3 0 1 0 -6 0zM639 222 a3 3 0 1 0 6 0 a3 3 0 1 0 -6 0zM663 174 a3 3 0 1 0 6 0 a3 3 0 1 0 -6 0zM651 234 a3 3 0 1 0 6 0 a3 3 0 1 0 -6 0z" fill="url(#SvgjsLinearGradient1848)"></path><path d="M774 90L786 102L786 114L786 126L786 138M774 30L786 42M774 54L786 66L786 78L786 90M774 -6L774 6L774 18L774 30L774 42L774 54L774 66L774 78L774 90L774 102L774 114L774 126" stroke="url(#SvgjsLinearGradient1848)" stroke-width="2"></path><path d="M771 126 a3 3 0 1 0 6 0 a3 3 0 1 0 -6 0zM783 138 a3 3 0 1 0 6 0 a3 3 0 1 0 -6 0zM783 42 a3 3 0 1 0 6 0 a3 3 0 1 0 -6 0zM783 90 a3 3 0 1 0 6 0 a3 3 0 1 0 -6 0z" fill="url(#SvgjsLinearGradient1848)"></path><path d="M618 498L630 510L630 522L630 534M654 54L642 66L642 78L642 90L642 102L642 114L642 126L642 138L642 150L642 162M618 426L630 438L630 450L642 462L642 474L642 486L642 498L642 510L642 522L642 534M618 474L606 486L606 498L606 510L606 522M618 366L630 378M618 450L606 462L606 474M618 354L630 366M618 294L630 306L630 318L630 330L630 342L630 354L642 366M618 330L606 342L606 354L606 366L606 378L606 390L606 402L606 414M630 282L630 294M618 402L630 414L630 426L642 438L642 450L654 462M666 -6L666 6L654 18L654 30L654 42L654 54L654 66L654 78L654 90L654 102L654 114L654 126L654 138L654 150L654 162L642 174L642 186L642 198L630 210L630 222L630 234L630 246L630 258L630 270L630 282L618 294L618 306L618 318L618 330L618 342L618 354L618 366L618 378L618 390L618 402L618 414L618 426L618 438L618 450L618 462L618 474L618 486L618 498L618 510L618 522L618 534" stroke="url(#SvgjsLinearGradient1848)" stroke-width="2"></path><path d="M615 534 a3 3 0 1 0 6 0 a3 3 0 1 0 -6 0zM627 534 a3 3 0 1 0 6 0 a3 3 0 1 0 -6 0zM639 162 a3 3 0 1 0 6 0 a3 3 0 1 0 -6 0zM639 534 a3 3 0 1 0 6 0 a3 3 0 1 0 -6 0zM603 522 a3 3 0 1 0 6 0 a3 3 0 1 0 -6 0zM627 378 a3 3 0 1 0 6 0 a3 3 0 1 0 -6 0zM603 474 a3 3 0 1 0 6 0 a3 3 0 1 0 -6 0zM627 366 a3 3 0 1 0 6 0 a3 3 0 1 0 -6 0zM639 366 a3 3 0 1 0 6 0 a3 3 0 1 0 -6 0zM603 414 a3 3 0 1 0 6 0 a3 3 0 1 0 -6 0zM627 294 a3 3 0 1 0 6 0 a3 3 0 1 0 -6 0zM651 462 a3 3 0 1 0 6 0 a3 3 0 1 0 -6 0z" fill="url(#SvgjsLinearGradient1848)"></path><path d="M654 -6L654 6L642 18L642 30L642 42" stroke="url(#SvgjsLinearGradient1848)" stroke-width="2"></path><path d="M639 42 a3 3 0 1 0 6 0 a3 3 0 1 0 -6 0z" fill="url(#SvgjsLinearGradient1848)"></path><path d="M834 426L846 438L846 450L846 462L846 474L846 486M834 198L822 210M834 294L822 306L822 318M834 234L822 246L822 258L822 270L822 282L822 294L810 306L810 318L810 330M834 366L822 378L822 390L822 402L822 414M834 402L846 414L846 426L858 438M834 162L822 174M798 30L810 42L810 54L810 66L810 78M834 222L822 234M798 6L786 18L786 30M798 -6L798 6L798 18L798 30L798 42L798 54L798 66L798 78L810 90L822 102L822 114L822 126L822 138L834 150L834 162L834 174L834 186L834 198L834 210L834 222L834 234L834 246L834 258L834 270L834 282L834 294L834 306L834 318L834 330L834 342L834 354L834 366L834 378L834 390L834 402L834 414L834 426L834 438L834 450L834 462" stroke="url(#SvgjsLinearGradient1848)" stroke-width="2"></path><path d="M831 462 a3 3 0 1 0 6 0 a3 3 0 1 0 -6 0zM843 486 a3 3 0 1 0 6 0 a3 3 0 1 0 -6 0zM819 210 a3 3 0 1 0 6 0 a3 3 0 1 0 -6 0zM819 318 a3 3 0 1 0 6 0 a3 3 0 1 0 -6 0zM807 330 a3 3 0 1 0 6 0 a3 3 0 1 0 -6 0zM819 414 a3 3 0 1 0 6 0 a3 3 0 1 0 -6 0zM855 438 a3 3 0 1 0 6 0 a3 3 0 1 0 -6 0zM819 174 a3 3 0 1 0 6 0 a3 3 0 1 0 -6 0zM807 78 a3 3 0 1 0 6 0 a3 3 0 1 0 -6 0zM819 234 a3 3 0 1 0 6 0 a3 3 0 1 0 -6 0zM783 30 a3 3 0 1 0 6 0 a3 3 0 1 0 -6 0z" fill="url(#SvgjsLinearGradient1848)"></path><path d="M618 270L606 282M642 -6L642 6L630 18L630 30L630 42L630 54L630 66L630 78L630 90L630 102L630 114L630 126L630 138L630 150L630 162L630 174L630 186L630 198L618 210L618 222L618 234L618 246L618 258L618 270L618 282L606 294" stroke="url(#SvgjsLinearGradient1848)" stroke-width="2"></path><path d="M603 294 a3 3 0 1 0 6 0 a3 3 0 1 0 -6 0zM603 282 a3 3 0 1 0 6 0 a3 3 0 1 0 -6 0z" fill="url(#SvgjsLinearGradient1848)"></path><path d="M822 18L810 30M810 6L810 18M810 -6L810 6L822 18L822 30L822 42L822 54L822 66L822 78L822 90L834 102L834 114" stroke="url(#SvgjsLinearGradient1848)" stroke-width="2"></path><path d="M831 114 a3 3 0 1 0 6 0 a3 3 0 1 0 -6 0zM807 30 a3 3 0 1 0 6 0 a3 3 0 1 0 -6 0zM807 18 a3 3 0 1 0 6 0 a3 3 0 1 0 -6 0z" fill="url(#SvgjsLinearGradient1848)"></path><path d="M618 90L606 102M618 150L606 162M606 234L594 246L594 258M618 114L606 126L606 138M594 270L582 282M618 174L606 186L606 198L594 210L594 222L594 234M630 -6L630 6L618 18L618 30L618 42L618 54L618 66L618 78L618 90L618 102L618 114L618 126L618 138L618 150L618 162L618 174L618 186L618 198L606 210L606 222L606 234L606 246L606 258L594 270L594 282L594 294L594 306" stroke="url(#SvgjsLinearGradient1848)" stroke-width="2"></path><path d="M591 306 a3 3 0 1 0 6 0 a3 3 0 1 0 -6 0zM603 102 a3 3 0 1 0 6 0 a3 3 0 1 0 -6 0zM603 162 a3 3 0 1 0 6 0 a3 3 0 1 0 -6 0zM591 258 a3 3 0 1 0 6 0 a3 3 0 1 0 -6 0zM603 138 a3 3 0 1 0 6 0 a3 3 0 1 0 -6 0zM579 282 a3 3 0 1 0 6 0 a3 3 0 1 0 -6 0zM591 234 a3 3 0 1 0 6 0 a3 3 0 1 0 -6 0z" fill="url(#SvgjsLinearGradient1848)"></path><path d="M846 270L858 282L858 294L858 306M846 186L858 198L858 210L858 222M846 246L858 258L858 270L870 282L870 294M858 366L846 378M846 318L858 330L870 342L870 354L870 366L870 378L870 390L870 402L870 414M846 234L858 246L870 258L870 270L882 282M846 174L858 186L870 198L870 210L870 222M846 330L846 342L846 354L846 366M822 -6L822 6L834 18L834 30L834 42L834 54L834 66L834 78L834 90L846 102L846 114L846 126L846 138L846 150L846 162L846 174L846 186L846 198L846 210L846 222L846 234L846 246L846 258L846 270L846 282L846 294L846 306L846 318L846 330L858 342L858 354L858 366L858 378L858 390" stroke="url(#SvgjsLinearGradient1848)" stroke-width="2"></path><path d="M855 390 a3 3 0 1 0 6 0 a3 3 0 1 0 -6 0zM855 306 a3 3 0 1 0 6 0 a3 3 0 1 0 -6 0zM855 222 a3 3 0 1 0 6 0 a3 3 0 1 0 -6 0zM867 294 a3 3 0 1 0 6 0 a3 3 0 1 0 -6 0zM843 378 a3 3 0 1 0 6 0 a3 3 0 1 0 -6 0zM867 414 a3 3 0 1 0 6 0 a3 3 0 1 0 -6 0zM879 282 a3 3 0 1 0 6 0 a3 3 0 1 0 -6 0zM867 222 a3 3 0 1 0 6 0 a3 3 0 1 0 -6 0zM843 366 a3 3 0 1 0 6 0 a3 3 0 1 0 -6 0z" fill="url(#SvgjsLinearGradient1848)"></path><path d="M618 -6L618 6L606 18L606 30" stroke="url(#SvgjsLinearGradient1848)" stroke-width="2"></path><path d="M603 30 a3 3 0 1 0 6 0 a3 3 0 1 0 -6 0z" fill="url(#SvgjsLinearGradient1848)"></path><path d="M834 -6L834 6L846 18L846 30L846 42L846 54L846 66L846 78L846 90L858 102L858 114L870 126" stroke="url(#SvgjsLinearGradient1848)" stroke-width="2"></path><path d="M867 126 a3 3 0 1 0 6 0 a3 3 0 1 0 -6 0z" fill="url(#SvgjsLinearGradient1848)"></path><path d="M594 42L582 54L582 66L582 78L594 90M606 -6L606 6L594 18L594 30L594 42L594 54" stroke="url(#SvgjsLinearGradient1848)" stroke-width="2"></path><path d="M591 54 a3 3 0 1 0 6 0 a3 3 0 1 0 -6 0zM591 90 a3 3 0 1 0 6 0 a3 3 0 1 0 -6 0z" fill="url(#SvgjsLinearGradient1848)"></path><path d="M882 354L882 366L882 378L882 390L882 402L882 414L882 426L882 438L882 450L882 462L882 474M882 306L870 318L870 330M894 234L882 246L882 258L882 270M882 162L870 174L870 186M894 390L906 402L918 414L918 426L918 438L918 450L918 462L930 474L930 486M906 414L894 426M882 222L870 234L870 246M894 282L894 294L894 306L894 318L894 330L894 342L894 354L906 366L906 378L906 390M894 402L894 414M846 -6L846 6L858 18L858 30L858 42L858 54L858 66L858 78L858 90L870 102L870 114L882 126L882 138L882 150L882 162L882 174L882 186L882 198L882 210L882 222L894 234L894 246L894 258L894 270L894 282L882 294L882 306L882 318L882 330L882 342L882 354L894 366L894 378L894 390L894 402L906 414L906 426L906 438" stroke="url(#SvgjsLinearGradient1848)" stroke-width="2"></path><path d="M903 438 a3 3 0 1 0 6 0 a3 3 0 1 0 -6 0zM879 474 a3 3 0 1 0 6 0 a3 3 0 1 0 -6 0zM867 330 a3 3 0 1 0 6 0 a3 3 0 1 0 -6 0zM879 270 a3 3 0 1 0 6 0 a3 3 0 1 0 -6 0zM867 186 a3 3 0 1 0 6 0 a3 3 0 1 0 -6 0zM927 486 a3 3 0 1 0 6 0 a3 3 0 1 0 -6 0zM891 426 a3 3 0 1 0 6 0 a3 3 0 1 0 -6 0zM867 246 a3 3 0 1 0 6 0 a3 3 0 1 0 -6 0zM903 390 a3 3 0 1 0 6 0 a3 3 0 1 0 -6 0zM891 414 a3 3 0 1 0 6 0 a3 3 0 1 0 -6 0z" fill="url(#SvgjsLinearGradient1848)"></path><path d="M858 -6L858 6L870 18L870 30L870 42L870 54L870 66L870 78L870 90" stroke="url(#SvgjsLinearGradient1848)" stroke-width="2"></path><path d="M867 90 a3 3 0 1 0 6 0 a3 3 0 1 0 -6 0z" fill="url(#SvgjsLinearGradient1848)"></path><path d="M594 486L582 498L582 510L582 522L570 534M594 414L582 426L582 438L582 450L582 462M582 318L570 330L570 342M570 186L582 198L582 210L582 222L582 234M594 438L606 450M570 246L558 258L558 270L558 282L558 294L558 306L570 318M582 378L582 390L582 402M570 222L558 234L558 246L546 258L546 270L546 282L546 294M570 198L558 210M570 174L582 186L594 198M594 474L582 486L570 498L570 510L570 522M582 -6L570 6L558 18L558 30L558 42L558 54L558 66L570 78L570 90L570 102L570 114L570 126L570 138L570 150L570 162L570 174L570 186L570 198L570 210L570 222L570 234L570 246L570 258L570 270L570 282L582 294L582 306L582 318L582 330L582 342L582 354L582 366L582 378L594 390L594 402L594 414L594 426L594 438L594 450L594 462L594 474L594 486L594 498L594 510L594 522L594 534" stroke="url(#SvgjsLinearGradient1848)" stroke-width="2"></path><path d="M591 534 a3 3 0 1 0 6 0 a3 3 0 1 0 -6 0zM567 534 a3 3 0 1 0 6 0 a3 3 0 1 0 -6 0zM579 462 a3 3 0 1 0 6 0 a3 3 0 1 0 -6 0zM567 342 a3 3 0 1 0 6 0 a3 3 0 1 0 -6 0zM579 234 a3 3 0 1 0 6 0 a3 3 0 1 0 -6 0zM603 450 a3 3 0 1 0 6 0 a3 3 0 1 0 -6 0zM567 318 a3 3 0 1 0 6 0 a3 3 0 1 0 -6 0zM579 402 a3 3 0 1 0 6 0 a3 3 0 1 0 -6 0zM543 294 a3 3 0 1 0 6 0 a3 3 0 1 0 -6 0zM555 210 a3 3 0 1 0 6 0 a3 3 0 1 0 -6 0zM591 198 a3 3 0 1 0 6 0 a3 3 0 1 0 -6 0zM567 522 a3 3 0 1 0 6 0 a3 3 0 1 0 -6 0z" fill="url(#SvgjsLinearGradient1848)"></path><path d="M894 138L906 150L906 162L906 174L906 186M882 78L894 90L894 102L894 114L906 126L906 138M894 210L906 222L918 234L918 246M906 258L918 270L918 282M882 66L894 78L906 90L906 102L906 114L918 126L918 138M870 -6L870 6L882 18L882 30L882 42L882 54L882 66L882 78L882 90L882 102L882 114L894 126L894 138L894 150L894 162L894 174L894 186L894 198L894 210L894 222L906 234L906 246L906 258L906 270" stroke="url(#SvgjsLinearGradient1848)" stroke-width="2"></path><path d="M903 270 a3 3 0 1 0 6 0 a3 3 0 1 0 -6 0zM903 186 a3 3 0 1 0 6 0 a3 3 0 1 0 -6 0zM903 138 a3 3 0 1 0 6 0 a3 3 0 1 0 -6 0zM915 246 a3 3 0 1 0 6 0 a3 3 0 1 0 -6 0zM915 282 a3 3 0 1 0 6 0 a3 3 0 1 0 -6 0zM915 138 a3 3 0 1 0 6 0 a3 3 0 1 0 -6 0z" fill="url(#SvgjsLinearGradient1848)"></path><path d="M546 18L534 30M546 42L534 54M534 66L546 78M570 -6L558 6L546 18L546 30L546 42L546 54L534 66L534 78" stroke="url(#SvgjsLinearGradient1848)" stroke-width="2"></path><path d="M531 78 a3 3 0 1 0 6 0 a3 3 0 1 0 -6 0zM531 30 a3 3 0 1 0 6 0 a3 3 0 1 0 -6 0zM531 54 a3 3 0 1 0 6 0 a3 3 0 1 0 -6 0zM543 78 a3 3 0 1 0 6 0 a3 3 0 1 0 -6 0z" fill="url(#SvgjsLinearGradient1848)"></path><path d="M882 -6L882 6L894 18L894 30L894 42L894 54" stroke="url(#SvgjsLinearGradient1848)" stroke-width="2"></path><path d="M891 54 a3 3 0 1 0 6 0 a3 3 0 1 0 -6 0z" fill="url(#SvgjsLinearGradient1848)"></path><path d="M558 -6L546 6" stroke="url(#SvgjsLinearGradient1848)" stroke-width="2"></path><path d="M543 6 a3 3 0 1 0 6 0 a3 3 0 1 0 -6 0z" fill="url(#SvgjsLinearGradient1848)"></path><path d="M894 -6L894 6L906 18L906 30L906 42" stroke="url(#SvgjsLinearGradient1848)" stroke-width="2"></path><path d="M903 42 a3 3 0 1 0 6 0 a3 3 0 1 0 -6 0z" fill="url(#SvgjsLinearGradient1848)"></path><path d="M522 114L534 126L534 138L534 150L534 162M522 150L510 162M534 6L534 18M546 -6L534 6L522 18L522 30L522 42L522 54L522 66L522 78L522 90L522 102L522 114L522 126L522 138L522 150L522 162" stroke="url(#SvgjsLinearGradient1848)" stroke-width="2"></path><path d="M519 162 a3 3 0 1 0 6 0 a3 3 0 1 0 -6 0zM531 162 a3 3 0 1 0 6 0 a3 3 0 1 0 -6 0zM507 162 a3 3 0 1 0 6 0 a3 3 0 1 0 -6 0zM531 18 a3 3 0 1 0 6 0 a3 3 0 1 0 -6 0z" fill="url(#SvgjsLinearGradient1848)"></path><path d="M918 18L918 30L918 42L918 54L918 66M942 138L930 150L930 162L930 174L930 186L930 198M942 246L930 258L930 270L930 282M942 234L930 246M930 114L930 126L930 138M906 -6L906 6L918 18L930 30L930 42L930 54L930 66L930 78L930 90L930 102L930 114L942 126L942 138L942 150L942 162L942 174L942 186L942 198L942 210L942 222L942 234L942 246L942 258" stroke="url(#SvgjsLinearGradient1848)" stroke-width="2"></path><path d="M939 258 a3 3 0 1 0 6 0 a3 3 0 1 0 -6 0zM915 66 a3 3 0 1 0 6 0 a3 3 0 1 0 -6 0zM927 198 a3 3 0 1 0 6 0 a3 3 0 1 0 -6 0zM927 282 a3 3 0 1 0 6 0 a3 3 0 1 0 -6 0zM927 246 a3 3 0 1 0 6 0 a3 3 0 1 0 -6 0zM927 138 a3 3 0 1 0 6 0 a3 3 0 1 0 -6 0z" fill="url(#SvgjsLinearGradient1848)"></path><path d="M510 54L498 66M510 42L498 54M534 -6L522 6L510 18L510 30L510 42L510 54L510 66" stroke="url(#SvgjsLinearGradient1848)" stroke-width="2"></path><path d="M507 66 a3 3 0 1 0 6 0 a3 3 0 1 0 -6 0zM495 66 a3 3 0 1 0 6 0 a3 3 0 1 0 -6 0zM495 54 a3 3 0 1 0 6 0 a3 3 0 1 0 -6 0z" fill="url(#SvgjsLinearGradient1848)"></path><path d="M954 210L954 222L954 234L954 246L954 258M954 138L966 150L966 162M942 90L954 102L954 114L966 126L966 138M966 246L978 258L978 270L978 282L978 294L978 306M954 174L966 186M966 234L978 246M918 -6L918 6L930 18L942 30L942 42L942 54L942 66L942 78L942 90L942 102L942 114L954 126L954 138L954 150L954 162L954 174L954 186L954 198L954 210L966 222L966 234L966 246L966 258L966 270" stroke="url(#SvgjsLinearGradient1848)" stroke-width="2"></path><path d="M963 270 a3 3 0 1 0 6 0 a3 3 0 1 0 -6 0zM951 258 a3 3 0 1 0 6 0 a3 3 0 1 0 -6 0zM963 162 a3 3 0 1 0 6 0 a3 3 0 1 0 -6 0zM963 138 a3 3 0 1 0 6 0 a3 3 0 1 0 -6 0zM975 306 a3 3 0 1 0 6 0 a3 3 0 1 0 -6 0zM963 186 a3 3 0 1 0 6 0 a3 3 0 1 0 -6 0zM975 246 a3 3 0 1 0 6 0 a3 3 0 1 0 -6 0z" fill="url(#SvgjsLinearGradient1848)"></path><path d="M498 198L486 210M486 90L474 102L474 114L474 126L474 138M510 210L522 222L522 234L522 246L522 258M486 126L498 138L498 150L498 162L498 174L498 186L510 198M486 30L498 42M522 -6L510 6L498 18L486 30L486 42L486 54L486 66L486 78L486 90L486 102L486 114L486 126L486 138L486 150L486 162L486 174L486 186L498 198L510 210L510 222L510 234L510 246" stroke="url(#SvgjsLinearGradient1848)" stroke-width="2"></path><path d="M507 246 a3 3 0 1 0 6 0 a3 3 0 1 0 -6 0zM483 210 a3 3 0 1 0 6 0 a3 3 0 1 0 -6 0zM471 138 a3 3 0 1 0 6 0 a3 3 0 1 0 -6 0zM519 258 a3 3 0 1 0 6 0 a3 3 0 1 0 -6 0zM507 198 a3 3 0 1 0 6 0 a3 3 0 1 0 -6 0zM495 42 a3 3 0 1 0 6 0 a3 3 0 1 0 -6 0z" fill="url(#SvgjsLinearGradient1848)"></path><path d="M930 -6L930 6L942 18L954 30L954 42L954 54L954 66L954 78" stroke="url(#SvgjsLinearGradient1848)" stroke-width="2"></path><path d="M951 78 a3 3 0 1 0 6 0 a3 3 0 1 0 -6 0z" fill="url(#SvgjsLinearGradient1848)"></path><path d="M450 78L438 90L438 102L438 114M462 42L474 54L474 66L474 78M450 90L462 102L462 114L462 126M510 -6L498 6L486 18L474 30L462 42L462 54L450 66L450 78L450 90L450 102" stroke="url(#SvgjsLinearGradient1848)" stroke-width="2"></path><path d="M447 102 a3 3 0 1 0 6 0 a3 3 0 1 0 -6 0zM435 114 a3 3 0 1 0 6 0 a3 3 0 1 0 -6 0zM471 78 a3 3 0 1 0 6 0 a3 3 0 1 0 -6 0zM459 126 a3 3 0 1 0 6 0 a3 3 0 1 0 -6 0z" fill="url(#SvgjsLinearGradient1848)"></path><path d="M966 78L954 90M978 102L966 114M978 90L966 102M942 -6L942 6L954 18L966 30L966 42L966 54L966 66L966 78L978 90L978 102L978 114L978 126L978 138L978 150L978 162L978 174" stroke="url(#SvgjsLinearGradient1848)" stroke-width="2"></path><path d="M975 174 a3 3 0 1 0 6 0 a3 3 0 1 0 -6 0zM951 90 a3 3 0 1 0 6 0 a3 3 0 1 0 -6 0zM963 114 a3 3 0 1 0 6 0 a3 3 0 1 0 -6 0zM963 102 a3 3 0 1 0 6 0 a3 3 0 1 0 -6 0z" fill="url(#SvgjsLinearGradient1848)"></path><path d="M426 198L438 210M426 234L438 246M426 150L438 162L438 174L438 186M438 66L438 78M426 138L438 150M498 -6L486 6L474 18L462 30L450 42L450 54L438 66L426 78L426 90L426 102L426 114L426 126L426 138L426 150L426 162L426 174L426 186L426 198L426 210L426 222L426 234L426 246" stroke="url(#SvgjsLinearGradient1848)" stroke-width="2"></path><path d="M423 246 a3 3 0 1 0 6 0 a3 3 0 1 0 -6 0zM435 210 a3 3 0 1 0 6 0 a3 3 0 1 0 -6 0zM435 246 a3 3 0 1 0 6 0 a3 3 0 1 0 -6 0zM435 186 a3 3 0 1 0 6 0 a3 3 0 1 0 -6 0zM435 78 a3 3 0 1 0 6 0 a3 3 0 1 0 -6 0zM435 150 a3 3 0 1 0 6 0 a3 3 0 1 0 -6 0z" fill="url(#SvgjsLinearGradient1848)"></path><path d="M990 210L978 222L978 234M1002 414L990 426L990 438M990 186L978 198L978 210M990 258L1002 270L1002 282L1002 294L1002 306L1002 318M990 342L990 354L990 366L990 378L990 390L990 402L990 414L978 426L978 438L978 450L978 462L978 474L990 486M1002 378L1014 390L1014 402L1014 414L1014 426M1002 366L1014 378L1026 390L1026 402L1026 414L1026 426L1026 438L1026 450L1014 462L1014 474L1014 486M990 246L1002 258M1002 354L1014 366L1026 378M1002 438L1014 450M954 -6L954 6L966 18L978 30L978 42L978 54L978 66L978 78L990 90L990 102L990 114L990 126L990 138L990 150L990 162L990 174L990 186L990 198L990 210L990 222L990 234L990 246L990 258L990 270L990 282L990 294L990 306L990 318L990 330L990 342L1002 354L1002 366L1002 378L1002 390L1002 402L1002 414L1002 426L1002 438L1002 450L1002 462L1002 474L1002 486" stroke="url(#SvgjsLinearGradient1848)" stroke-width="2"></path><path d="M999 486 a3 3 0 1 0 6 0 a3 3 0 1 0 -6 0zM975 234 a3 3 0 1 0 6 0 a3 3 0 1 0 -6 0zM987 438 a3 3 0 1 0 6 0 a3 3 0 1 0 -6 0zM975 210 a3 3 0 1 0 6 0 a3 3 0 1 0 -6 0zM999 318 a3 3 0 1 0 6 0 a3 3 0 1 0 -6 0zM987 486 a3 3 0 1 0 6 0 a3 3 0 1 0 -6 0zM1011 426 a3 3 0 1 0 6 0 a3 3 0 1 0 -6 0zM1011 486 a3 3 0 1 0 6 0 a3 3 0 1 0 -6 0zM999 258 a3 3 0 1 0 6 0 a3 3 0 1 0 -6 0zM1023 378 a3 3 0 1 0 6 0 a3 3 0 1 0 -6 0zM1011 450 a3 3 0 1 0 6 0 a3 3 0 1 0 -6 0z" fill="url(#SvgjsLinearGradient1848)"></path><path d="M414 258L426 270L426 282L426 294L426 306M414 198L402 210M486 -6L474 6L462 18L450 30L438 42L438 54L426 66L414 78L414 90L414 102L414 114L414 126L414 138L414 150L414 162L414 174L414 186L414 198L414 210L414 222L414 234L414 246L414 258L414 270" stroke="url(#SvgjsLinearGradient1848)" stroke-width="2"></path><path d="M411 270 a3 3 0 1 0 6 0 a3 3 0 1 0 -6 0zM423 306 a3 3 0 1 0 6 0 a3 3 0 1 0 -6 0zM399 210 a3 3 0 1 0 6 0 a3 3 0 1 0 -6 0z" fill="url(#SvgjsLinearGradient1848)"></path><path d="M1002 150L1014 162L1014 174L1014 186L1014 198L1014 210L1014 222L1014 234M1002 234L1002 246M966 -6L966 6L978 18L990 30L990 42L990 54L990 66L990 78L1002 90L1002 102L1002 114L1002 126L1002 138L1002 150L1002 162L1002 174L1002 186L1002 198L1002 210L1002 222L1002 234L1014 246L1014 258L1014 270L1014 282L1014 294" stroke="url(#SvgjsLinearGradient1848)" stroke-width="2"></path><path d="M1011 294 a3 3 0 1 0 6 0 a3 3 0 1 0 -6 0zM1011 234 a3 3 0 1 0 6 0 a3 3 0 1 0 -6 0zM999 246 a3 3 0 1 0 6 0 a3 3 0 1 0 -6 0z" fill="url(#SvgjsLinearGradient1848)"></path><path d="M474 -6L462 6L450 18L438 30L426 42L426 54L414 66L402 78L402 90L402 102L402 114L402 126L402 138L402 150L402 162L402 174L402 186" stroke="url(#SvgjsLinearGradient1848)" stroke-width="2"></path><path d="M399 186 a3 3 0 1 0 6 0 a3 3 0 1 0 -6 0z" fill="url(#SvgjsLinearGradient1848)"></path><path d="M1038 426L1050 438L1050 450L1050 462L1050 474L1050 486L1050 498M1038 318L1026 330L1026 342M1026 294L1026 306L1026 318M1038 462L1026 474L1026 486L1026 498L1026 510L1026 522L1014 534M1014 138L1014 150M1038 354L1026 366M978 -6L978 6L990 18L1002 30L1002 42L1002 54L1002 66L1002 78L1014 90L1014 102L1014 114L1014 126L1014 138L1026 150L1026 162L1026 174L1026 186L1026 198L1026 210L1026 222L1026 234L1026 246L1026 258L1026 270L1026 282L1026 294L1038 306L1038 318L1038 330L1038 342L1038 354L1038 366L1038 378L1038 390L1038 402L1038 414L1038 426L1038 438L1038 450L1038 462L1038 474" stroke="url(#SvgjsLinearGradient1848)" stroke-width="2"></path><path d="M1035 474 a3 3 0 1 0 6 0 a3 3 0 1 0 -6 0zM1047 498 a3 3 0 1 0 6 0 a3 3 0 1 0 -6 0zM1023 342 a3 3 0 1 0 6 0 a3 3 0 1 0 -6 0zM1023 318 a3 3 0 1 0 6 0 a3 3 0 1 0 -6 0zM1011 534 a3 3 0 1 0 6 0 a3 3 0 1 0 -6 0zM1011 150 a3 3 0 1 0 6 0 a3 3 0 1 0 -6 0zM1023 366 a3 3 0 1 0 6 0 a3 3 0 1 0 -6 0z" fill="url(#SvgjsLinearGradient1848)"></path><path d="M390 90L378 102L378 114M402 222L390 234L390 246L390 258L390 270L390 282L390 294L390 306L390 318L390 330L390 342L378 354M402 330L414 342L414 354L414 366L414 378L414 390L414 402L414 414M390 162L378 174L378 186L378 198L378 210L378 222L378 234M390 366L378 378M390 138L378 150L378 162M402 318L414 330L426 342L426 354L426 366M402 282L414 294L414 306M390 126L378 138M462 -6L450 6L438 18L426 30L414 42L414 54L402 66L390 78L390 90L390 102L390 114L390 126L390 138L390 150L390 162L390 174L390 186L390 198L390 210L402 222L402 234L402 246L402 258L402 270L402 282L402 294L402 306L402 318L402 330L402 342L402 354L390 366L390 378L390 390L390 402L378 414" stroke="url(#SvgjsLinearGradient1848)" stroke-width="2"></path><path d="M375 414 a3 3 0 1 0 6 0 a3 3 0 1 0 -6 0zM375 114 a3 3 0 1 0 6 0 a3 3 0 1 0 -6 0zM375 354 a3 3 0 1 0 6 0 a3 3 0 1 0 -6 0zM411 414 a3 3 0 1 0 6 0 a3 3 0 1 0 -6 0zM375 234 a3 3 0 1 0 6 0 a3 3 0 1 0 -6 0zM375 378 a3 3 0 1 0 6 0 a3 3 0 1 0 -6 0zM375 162 a3 3 0 1 0 6 0 a3 3 0 1 0 -6 0zM423 366 a3 3 0 1 0 6 0 a3 3 0 1 0 -6 0zM411 306 a3 3 0 1 0 6 0 a3 3 0 1 0 -6 0zM375 138 a3 3 0 1 0 6 0 a3 3 0 1 0 -6 0z" fill="url(#SvgjsLinearGradient1848)"></path><path d="M1038 198L1050 210L1050 222L1050 234L1050 246M1038 186L1050 198M1062 450L1074 462L1074 474L1074 486L1074 498M1038 270L1050 282L1050 294M1062 426L1074 438L1074 450L1086 462M1038 258L1050 270M990 -6L990 6L1002 18L1014 30L1014 42L1014 54L1014 66L1014 78L1026 90L1026 102L1026 114L1026 126L1026 138L1038 150L1038 162L1038 174L1038 186L1038 198L1038 210L1038 222L1038 234L1038 246L1038 258L1038 270L1038 282L1038 294L1050 306L1050 318L1050 330L1050 342L1050 354L1050 366L1050 378L1050 390L1050 402L1050 414L1062 426L1062 438L1062 450L1062 462L1062 474L1062 486L1062 498L1062 510" stroke="url(#SvgjsLinearGradient1848)" stroke-width="2"></path><path d="M1059 510 a3 3 0 1 0 6 0 a3 3 0 1 0 -6 0zM1047 246 a3 3 0 1 0 6 0 a3 3 0 1 0 -6 0zM1047 198 a3 3 0 1 0 6 0 a3 3 0 1 0 -6 0zM1071 498 a3 3 0 1 0 6 0 a3 3 0 1 0 -6 0zM1047 294 a3 3 0 1 0 6 0 a3 3 0 1 0 -6 0zM1083 462 a3 3 0 1 0 6 0 a3 3 0 1 0 -6 0zM1047 270 a3 3 0 1 0 6 0 a3 3 0 1 0 -6 0z" fill="url(#SvgjsLinearGradient1848)"></path><path d="M366 342L354 354M366 414L354 426M366 186L354 198L354 210L354 222L354 234L354 246L354 258L354 270L354 282M366 426L378 438L378 450M366 306L354 318L354 330L354 342L342 354L342 366L342 378L342 390M366 282L378 294L378 306M378 258L378 270L378 282M378 246L366 258M366 378L354 390L354 402M366 438L354 450L354 462L354 474M450 -6L438 6L426 18L414 30L402 42L402 54L390 66L378 78L366 90L366 102L366 114L366 126L366 138L366 150L366 162L366 174L366 186L366 198L366 210L366 222L366 234L378 246L378 258L366 270L366 282L366 294L366 306L366 318L366 330L366 342L366 354L366 366L366 378L366 390L366 402L366 414L366 426L366 438L366 450L366 462L366 474L366 486L366 498" stroke="url(#SvgjsLinearGradient1848)" stroke-width="2"></path><path d="M363 498 a3 3 0 1 0 6 0 a3 3 0 1 0 -6 0zM351 354 a3 3 0 1 0 6 0 a3 3 0 1 0 -6 0zM351 426 a3 3 0 1 0 6 0 a3 3 0 1 0 -6 0zM351 282 a3 3 0 1 0 6 0 a3 3 0 1 0 -6 0zM375 450 a3 3 0 1 0 6 0 a3 3 0 1 0 -6 0zM339 390 a3 3 0 1 0 6 0 a3 3 0 1 0 -6 0zM375 306 a3 3 0 1 0 6 0 a3 3 0 1 0 -6 0zM375 282 a3 3 0 1 0 6 0 a3 3 0 1 0 -6 0zM363 258 a3 3 0 1 0 6 0 a3 3 0 1 0 -6 0zM351 402 a3 3 0 1 0 6 0 a3 3 0 1 0 -6 0zM351 474 a3 3 0 1 0 6 0 a3 3 0 1 0 -6 0z" fill="url(#SvgjsLinearGradient1848)"></path><path d="M1062 222L1074 234L1074 246M1062 390L1074 402L1074 414L1074 426M1050 174L1050 186M1062 354L1074 366L1074 378L1074 390L1086 402L1086 414L1086 426L1086 438L1086 450M1002 -6L1002 6L1014 18L1026 30L1026 42L1026 54L1026 66L1026 78L1038 90L1038 102L1038 114L1038 126L1038 138L1050 150L1050 162L1050 174L1062 186L1062 198L1062 210L1062 222L1062 234L1062 246L1062 258L1062 270L1062 282L1062 294L1062 306L1062 318L1062 330L1062 342L1062 354L1062 366L1062 378L1062 390L1062 402" stroke="url(#SvgjsLinearGradient1848)" stroke-width="2"></path><path d="M1059 402 a3 3 0 1 0 6 0 a3 3 0 1 0 -6 0zM1071 246 a3 3 0 1 0 6 0 a3 3 0 1 0 -6 0zM1071 426 a3 3 0 1 0 6 0 a3 3 0 1 0 -6 0zM1047 186 a3 3 0 1 0 6 0 a3 3 0 1 0 -6 0zM1083 450 a3 3 0 1 0 6 0 a3 3 0 1 0 -6 0z" fill="url(#SvgjsLinearGradient1848)"></path><path d="M438 -6L426 6L414 18L402 30L390 42L390 54L378 66L366 78L354 90L354 102L354 114L354 126L354 138L354 150L354 162" stroke="url(#SvgjsLinearGradient1848)" stroke-width="2"></path><path d="M351 162 a3 3 0 1 0 6 0 a3 3 0 1 0 -6 0z" fill="url(#SvgjsLinearGradient1848)"></path><path d="M1014 -6L1014 6L1026 18" stroke="url(#SvgjsLinearGradient1848)" stroke-width="2"></path><path d="M1023 18 a3 3 0 1 0 6 0 a3 3 0 1 0 -6 0z" fill="url(#SvgjsLinearGradient1848)"></path><path d="M426 -6L414 6L402 18" stroke="url(#SvgjsLinearGradient1848)" stroke-width="2"></path><path d="M399 18 a3 3 0 1 0 6 0 a3 3 0 1 0 -6 0z" fill="url(#SvgjsLinearGradient1848)"></path><path d="M1038 66L1038 78M1026 -6L1026 6L1038 18L1038 30L1038 42L1038 54L1038 66L1050 78L1050 90L1050 102L1050 114L1050 126L1050 138L1062 150L1062 162L1074 174L1074 186L1074 198" stroke="url(#SvgjsLinearGradient1848)" stroke-width="2"></path><path d="M1071 198 a3 3 0 1 0 6 0 a3 3 0 1 0 -6 0zM1035 78 a3 3 0 1 0 6 0 a3 3 0 1 0 -6 0z" fill="url(#SvgjsLinearGradient1848)"></path><path d="M330 198L342 210L342 222L342 234L342 246L342 258L342 270M342 162L342 174L342 186M414 -6L402 6L390 18L390 30L378 42L378 54L366 66L354 78L342 90L342 102L342 114L342 126L342 138L342 150L342 162L330 174L330 186L330 198L330 210L330 222L330 234L330 246L330 258L330 270L330 282" stroke="url(#SvgjsLinearGradient1848)" stroke-width="2"></path><path d="M327 282 a3 3 0 1 0 6 0 a3 3 0 1 0 -6 0zM339 270 a3 3 0 1 0 6 0 a3 3 0 1 0 -6 0zM339 186 a3 3 0 1 0 6 0 a3 3 0 1 0 -6 0z" fill="url(#SvgjsLinearGradient1848)"></path><path d="M1074 270L1086 282L1086 294L1086 306L1086 318L1086 330L1086 342M1074 342L1074 354M1098 402L1110 414L1110 426L1110 438L1110 450L1110 462L1110 474L1110 486L1110 498L1110 510L1110 522M1086 498L1098 510L1098 522L1098 534M1074 258L1086 270M1098 390L1110 402M1086 486L1098 498M1098 462L1098 474L1098 486M1098 378L1086 390M1098 366L1086 378M1086 210L1074 222M1038 -6L1038 6L1050 18L1050 30L1050 42L1050 54L1050 66L1062 78L1062 90L1062 102L1062 114L1062 126L1062 138L1074 150L1074 162L1086 174L1086 186L1086 198L1086 210L1086 222L1086 234L1086 246L1074 258L1074 270L1074 282L1074 294L1074 306L1074 318L1074 330L1074 342L1086 354L1098 366L1098 378L1098 390L1098 402L1098 414L1098 426L1098 438L1098 450L1098 462L1086 474L1086 486L1086 498L1086 510L1074 522" stroke="url(#SvgjsLinearGradient1848)" stroke-width="2"></path><path d="M1071 522 a3 3 0 1 0 6 0 a3 3 0 1 0 -6 0zM1083 342 a3 3 0 1 0 6 0 a3 3 0 1 0 -6 0zM1071 354 a3 3 0 1 0 6 0 a3 3 0 1 0 -6 0zM1107 522 a3 3 0 1 0 6 0 a3 3 0 1 0 -6 0zM1095 534 a3 3 0 1 0 6 0 a3 3 0 1 0 -6 0zM1083 270 a3 3 0 1 0 6 0 a3 3 0 1 0 -6 0zM1107 402 a3 3 0 1 0 6 0 a3 3 0 1 0 -6 0zM1095 498 a3 3 0 1 0 6 0 a3 3 0 1 0 -6 0zM1095 486 a3 3 0 1 0 6 0 a3 3 0 1 0 -6 0zM1083 390 a3 3 0 1 0 6 0 a3 3 0 1 0 -6 0zM1083 378 a3 3 0 1 0 6 0 a3 3 0 1 0 -6 0zM1071 222 a3 3 0 1 0 6 0 a3 3 0 1 0 -6 0z" fill="url(#SvgjsLinearGradient1848)"></path><path d="M306 390L318 402L330 414L330 426L330 438L330 450M306 282L318 294L318 306L318 318M306 486L318 498L318 510L318 522L318 534M318 450L306 462L294 474L294 486L294 498L294 510L294 522L294 534M306 378L318 390L330 402L342 414L342 426L342 438L342 450L342 462L342 474L342 486L342 498L342 510L342 522L342 534M306 354L318 366L318 378L330 390M306 402L306 414M318 258L306 270L294 282M318 462L318 474L330 486L330 498L330 510L330 522L330 534M318 270L318 282M318 438L306 450L294 462L282 474L282 486L282 498M402 -6L390 6L378 18L378 30L366 42L366 54L354 66L342 78L330 90L330 102L330 114L330 126L330 138L330 150L330 162L318 174L318 186L318 198L318 210L318 222L318 234L318 246L318 258L318 270L306 282L306 294L306 306L306 318L306 330L306 342L306 354L306 366L306 378L306 390L306 402L318 414L318 426L318 438L318 450L318 462L306 474L306 486L306 498L306 510L306 522L306 534" stroke="url(#SvgjsLinearGradient1848)" stroke-width="2"></path><path d="M303 534 a3 3 0 1 0 6 0 a3 3 0 1 0 -6 0zM327 450 a3 3 0 1 0 6 0 a3 3 0 1 0 -6 0zM315 318 a3 3 0 1 0 6 0 a3 3 0 1 0 -6 0zM315 534 a3 3 0 1 0 6 0 a3 3 0 1 0 -6 0zM291 534 a3 3 0 1 0 6 0 a3 3 0 1 0 -6 0zM339 534 a3 3 0 1 0 6 0 a3 3 0 1 0 -6 0zM327 390 a3 3 0 1 0 6 0 a3 3 0 1 0 -6 0zM303 414 a3 3 0 1 0 6 0 a3 3 0 1 0 -6 0zM291 282 a3 3 0 1 0 6 0 a3 3 0 1 0 -6 0zM327 534 a3 3 0 1 0 6 0 a3 3 0 1 0 -6 0zM315 282 a3 3 0 1 0 6 0 a3 3 0 1 0 -6 0zM279 498 a3 3 0 1 0 6 0 a3 3 0 1 0 -6 0z" fill="url(#SvgjsLinearGradient1848)"></path><path d="M318 102L306 114L306 126L306 138L306 150L306 162M294 234L306 246L306 258M390 -6L378 6L366 18L366 30L354 42L354 54L342 66L330 78L318 90L318 102L318 114L318 126L318 138L318 150L318 162L306 174L306 186L306 198L306 210L306 222L294 234L294 246" stroke="url(#SvgjsLinearGradient1848)" stroke-width="2"></path><path d="M291 246 a3 3 0 1 0 6 0 a3 3 0 1 0 -6 0zM303 162 a3 3 0 1 0 6 0 a3 3 0 1 0 -6 0zM303 258 a3 3 0 1 0 6 0 a3 3 0 1 0 -6 0z" fill="url(#SvgjsLinearGradient1848)"></path><path d="M1098 294L1110 306L1110 318L1110 330M1098 258L1110 270L1110 282M1074 114L1086 126L1086 138M1074 102L1086 114M1062 -6L1062 6L1062 18L1062 30L1062 42L1062 54L1062 66L1074 78L1074 90L1074 102L1074 114L1074 126L1074 138L1086 150L1086 162L1098 174L1098 186L1098 198L1098 210L1098 222L1098 234L1098 246L1098 258L1098 270L1098 282L1098 294L1098 306L1098 318L1098 330L1098 342L1098 354L1110 366L1110 378L1122 390L1122 402L1122 414" stroke="url(#SvgjsLinearGradient1848)" stroke-width="2"></path><path d="M1119 414 a3 3 0 1 0 6 0 a3 3 0 1 0 -6 0zM1107 330 a3 3 0 1 0 6 0 a3 3 0 1 0 -6 0zM1107 282 a3 3 0 1 0 6 0 a3 3 0 1 0 -6 0zM1083 138 a3 3 0 1 0 6 0 a3 3 0 1 0 -6 0zM1083 114 a3 3 0 1 0 6 0 a3 3 0 1 0 -6 0z" fill="url(#SvgjsLinearGradient1848)"></path><path d="M294 306L282 318L282 330L282 342L294 354M306 90L306 102M282 258L294 270M282 282L282 294L282 306M378 -6L366 6L354 18L354 30L342 42L342 54L330 66L318 78L306 90L294 102L294 114L294 126L294 138L294 150L294 162L294 174L294 186L294 198L294 210L294 222L282 234L282 246L282 258L282 270L282 282L294 294L294 306L294 318" stroke="url(#SvgjsLinearGradient1848)" stroke-width="2"></path><path d="M291 318 a3 3 0 1 0 6 0 a3 3 0 1 0 -6 0zM291 354 a3 3 0 1 0 6 0 a3 3 0 1 0 -6 0zM303 102 a3 3 0 1 0 6 0 a3 3 0 1 0 -6 0zM291 270 a3 3 0 1 0 6 0 a3 3 0 1 0 -6 0zM279 306 a3 3 0 1 0 6 0 a3 3 0 1 0 -6 0z" fill="url(#SvgjsLinearGradient1848)"></path><path d="M1110 246L1110 258M1098 126L1110 138L1110 150L1122 162L1134 174L1134 186M1110 198L1122 210L1122 222L1122 234L1122 246L1134 258L1134 270L1134 282M1110 186L1122 198L1134 210M1074 18L1086 30L1086 42L1086 54L1086 66M1098 150L1098 162M1086 90L1086 102M1110 174L1122 186M1134 402L1134 414L1134 426L1134 438M1074 -6L1074 6L1074 18L1074 30L1074 42L1074 54L1074 66L1086 78L1086 90L1098 102L1098 114L1098 126L1098 138L1098 150L1110 162L1110 174L1110 186L1110 198L1110 210L1110 222L1110 234L1110 246L1122 258L1122 270L1122 282L1122 294L1122 306L1122 318L1122 330L1110 342L1110 354L1122 366L1122 378L1134 390L1134 402L1146 414" stroke="url(#SvgjsLinearGradient1848)" stroke-width="2"></path><path d="M1143 414 a3 3 0 1 0 6 0 a3 3 0 1 0 -6 0zM1107 258 a3 3 0 1 0 6 0 a3 3 0 1 0 -6 0zM1131 186 a3 3 0 1 0 6 0 a3 3 0 1 0 -6 0zM1131 282 a3 3 0 1 0 6 0 a3 3 0 1 0 -6 0zM1131 210 a3 3 0 1 0 6 0 a3 3 0 1 0 -6 0zM1083 66 a3 3 0 1 0 6 0 a3 3 0 1 0 -6 0zM1095 162 a3 3 0 1 0 6 0 a3 3 0 1 0 -6 0zM1083 102 a3 3 0 1 0 6 0 a3 3 0 1 0 -6 0zM1119 186 a3 3 0 1 0 6 0 a3 3 0 1 0 -6 0zM1131 438 a3 3 0 1 0 6 0 a3 3 0 1 0 -6 0z" fill="url(#SvgjsLinearGradient1848)"></path><path d="M270 282L258 294L258 306L258 318L258 330L258 342L258 354L258 366L258 378L270 390L270 402M270 234L258 246L258 258L258 270L258 282L246 294L246 306M282 198L270 210L270 222L258 234L246 246L246 258L246 270L246 282L234 294L234 306L234 318M282 162L270 174L270 186M282 102L270 114M282 150L270 162M342 18L330 30L318 42M366 -6L354 6L342 18L342 30L330 42L318 54L318 66L306 78L294 90L282 102L282 114L282 126L282 138L282 150L282 162L282 174L282 186L282 198L282 210L282 222L270 234L270 246L270 258L270 270L270 282L270 294L270 306L270 318L270 330L270 342" stroke="url(#SvgjsLinearGradient1848)" stroke-width="2"></path><path d="M267 342 a3 3 0 1 0 6 0 a3 3 0 1 0 -6 0zM267 402 a3 3 0 1 0 6 0 a3 3 0 1 0 -6 0zM243 306 a3 3 0 1 0 6 0 a3 3 0 1 0 -6 0zM231 318 a3 3 0 1 0 6 0 a3 3 0 1 0 -6 0zM267 186 a3 3 0 1 0 6 0 a3 3 0 1 0 -6 0zM267 114 a3 3 0 1 0 6 0 a3 3 0 1 0 -6 0zM267 162 a3 3 0 1 0 6 0 a3 3 0 1 0 -6 0zM315 42 a3 3 0 1 0 6 0 a3 3 0 1 0 -6 0z" fill="url(#SvgjsLinearGradient1848)"></path></g></g><defs><mask id="SvgjsMask1847"><rect width="1440" height="560" fill="#ffffff"></rect></mask><linearGradient x1="0" y1="280" x2="1440" y2="280" gradientUnits="userSpaceOnUse" id="SvgjsLinearGradient1848"><stop stop-color="rgba(5, 247, 192, 1)" offset="0"></stop><stop stop-color="rgba(5, 247, 192, 0)" offset="0.67"></stop></linearGradient><mask id="SvgjsMask1849"><rect width="1440" height="560" fill="white"></rect><path d="M736.5 138 a1.5 1.5 0 1 0 3 0 a1.5 1.5 0 1 0 -3 0zM712.5 162 a1.5 1.5 0 1 0 3 0 a1.5 1.5 0 1 0 -3 0zM712.5 66 a1.5 1.5 0 1 0 3 0 a1.5 1.5 0 1 0 -3 0zM712.5 114 a1.5 1.5 0 1 0 3 0 a1.5 1.5 0 1 0 -3 0z" fill="black"></path><path d="M700.5 66 a1.5 1.5 0 1 0 3 0 a1.5 1.5 0 1 0 -3 0zM712.5 30 a1.5 1.5 0 1 0 3 0 a1.5 1.5 0 1 0 -3 0z" fill="black"></path><path d="M772.5 234 a1.5 1.5 0 1 0 3 0 a1.5 1.5 0 1 0 -3 0zM736.5 162 a1.5 1.5 0 1 0 3 0 a1.5 1.5 0 1 0 -3 0zM736.5 270 a1.5 1.5 0 1 0 3 0 a1.5 1.5 0 1 0 -3 0zM748.5 246 a1.5 1.5 0 1 0 3 0 a1.5 1.5 0 1 0 -3 0zM760.5 246 a1.5 1.5 0 1 0 3 0 a1.5 1.5 0 1 0 -3 0z" fill="black"></path><path d="M676.5 342 a1.5 1.5 0 1 0 3 0 a1.5 1.5 0 1 0 -3 0zM688.5 306 a1.5 1.5 0 1 0 3 0 a1.5 1.5 0 1 0 -3 0zM712.5 234 a1.5 1.5 0 1 0 3 0 a1.5 1.5 0 1 0 -3 0zM688.5 138 a1.5 1.5 0 1 0 3 0 a1.5 1.5 0 1 0 -3 0zM724.5 222 a1.5 1.5 0 1 0 3 0 a1.5 1.5 0 1 0 -3 0zM688.5 234 a1.5 1.5 0 1 0 3 0 a1.5 1.5 0 1 0 -3 0zM688.5 126 a1.5 1.5 0 1 0 3 0 a1.5 1.5 0 1 0 -3 0zM700.5 90 a1.5 1.5 0 1 0 3 0 a1.5 1.5 0 1 0 -3 0z" fill="black"></path><path d="M808.5 498 a1.5 1.5 0 1 0 3 0 a1.5 1.5 0 1 0 -3 0zM784.5 330 a1.5 1.5 0 1 0 3 0 a1.5 1.5 0 1 0 -3 0zM772.5 414 a1.5 1.5 0 1 0 3 0 a1.5 1.5 0 1 0 -3 0zM820.5 534 a1.5 1.5 0 1 0 3 0 a1.5 1.5 0 1 0 -3 0zM736.5 534 a1.5 1.5 0 1 0 3 0 a1.5 1.5 0 1 0 -3 0zM748.5 402 a1.5 1.5 0 1 0 3 0 a1.5 1.5 0 1 0 -3 0zM760.5 294 a1.5 1.5 0 1 0 3 0 a1.5 1.5 0 1 0 -3 0zM796.5 294 a1.5 1.5 0 1 0 3 0 a1.5 1.5 0 1 0 -3 0zM796.5 246 a1.5 1.5 0 1 0 3 0 a1.5 1.5 0 1 0 -3 0zM808.5 246 a1.5 1.5 0 1 0 3 0 a1.5 1.5 0 1 0 -3 0zM796.5 450 a1.5 1.5 0 1 0 3 0 a1.5 1.5 0 1 0 -3 0z" fill="black"></path><path d="M664.5 342 a1.5 1.5 0 1 0 3 0 a1.5 1.5 0 1 0 -3 0zM640.5 402 a1.5 1.5 0 1 0 3 0 a1.5 1.5 0 1 0 -3 0zM652.5 294 a1.5 1.5 0 1 0 3 0 a1.5 1.5 0 1 0 -3 0zM664.5 210 a1.5 1.5 0 1 0 3 0 a1.5 1.5 0 1 0 -3 0zM652.5 282 a1.5 1.5 0 1 0 3 0 a1.5 1.5 0 1 0 -3 0zM652.5 270 a1.5 1.5 0 1 0 3 0 a1.5 1.5 0 1 0 -3 0zM652.5 258 a1.5 1.5 0 1 0 3 0 a1.5 1.5 0 1 0 -3 0z" fill="black"></path><path d="M772.5 174 a1.5 1.5 0 1 0 3 0 a1.5 1.5 0 1 0 -3 0zM784.5 186 a1.5 1.5 0 1 0 3 0 a1.5 1.5 0 1 0 -3 0z" fill="black"></path><path d="M640.5 306 a1.5 1.5 0 1 0 3 0 a1.5 1.5 0 1 0 -3 0zM640.5 222 a1.5 1.5 0 1 0 3 0 a1.5 1.5 0 1 0 -3 0zM664.5 174 a1.5 1.5 0 1 0 3 0 a1.5 1.5 0 1 0 -3 0zM652.5 234 a1.5 1.5 0 1 0 3 0 a1.5 1.5 0 1 0 -3 0z" fill="black"></path><path d="M772.5 126 a1.5 1.5 0 1 0 3 0 a1.5 1.5 0 1 0 -3 0zM784.5 138 a1.5 1.5 0 1 0 3 0 a1.5 1.5 0 1 0 -3 0zM784.5 42 a1.5 1.5 0 1 0 3 0 a1.5 1.5 0 1 0 -3 0zM784.5 90 a1.5 1.5 0 1 0 3 0 a1.5 1.5 0 1 0 -3 0z" fill="black"></path><path d="M616.5 534 a1.5 1.5 0 1 0 3 0 a1.5 1.5 0 1 0 -3 0zM628.5 534 a1.5 1.5 0 1 0 3 0 a1.5 1.5 0 1 0 -3 0zM640.5 162 a1.5 1.5 0 1 0 3 0 a1.5 1.5 0 1 0 -3 0zM640.5 534 a1.5 1.5 0 1 0 3 0 a1.5 1.5 0 1 0 -3 0zM604.5 522 a1.5 1.5 0 1 0 3 0 a1.5 1.5 0 1 0 -3 0zM628.5 378 a1.5 1.5 0 1 0 3 0 a1.5 1.5 0 1 0 -3 0zM604.5 474 a1.5 1.5 0 1 0 3 0 a1.5 1.5 0 1 0 -3 0zM628.5 366 a1.5 1.5 0 1 0 3 0 a1.5 1.5 0 1 0 -3 0zM640.5 366 a1.5 1.5 0 1 0 3 0 a1.5 1.5 0 1 0 -3 0zM604.5 414 a1.5 1.5 0 1 0 3 0 a1.5 1.5 0 1 0 -3 0zM628.5 294 a1.5 1.5 0 1 0 3 0 a1.5 1.5 0 1 0 -3 0zM652.5 462 a1.5 1.5 0 1 0 3 0 a1.5 1.5 0 1 0 -3 0z" fill="black"></path><path d="M640.5 42 a1.5 1.5 0 1 0 3 0 a1.5 1.5 0 1 0 -3 0z" fill="black"></path><path d="M832.5 462 a1.5 1.5 0 1 0 3 0 a1.5 1.5 0 1 0 -3 0zM844.5 486 a1.5 1.5 0 1 0 3 0 a1.5 1.5 0 1 0 -3 0zM820.5 210 a1.5 1.5 0 1 0 3 0 a1.5 1.5 0 1 0 -3 0zM820.5 318 a1.5 1.5 0 1 0 3 0 a1.5 1.5 0 1 0 -3 0zM808.5 330 a1.5 1.5 0 1 0 3 0 a1.5 1.5 0 1 0 -3 0zM820.5 414 a1.5 1.5 0 1 0 3 0 a1.5 1.5 0 1 0 -3 0zM856.5 438 a1.5 1.5 0 1 0 3 0 a1.5 1.5 0 1 0 -3 0zM820.5 174 a1.5 1.5 0 1 0 3 0 a1.5 1.5 0 1 0 -3 0zM808.5 78 a1.5 1.5 0 1 0 3 0 a1.5 1.5 0 1 0 -3 0zM820.5 234 a1.5 1.5 0 1 0 3 0 a1.5 1.5 0 1 0 -3 0zM784.5 30 a1.5 1.5 0 1 0 3 0 a1.5 1.5 0 1 0 -3 0z" fill="black"></path><path d="M604.5 294 a1.5 1.5 0 1 0 3 0 a1.5 1.5 0 1 0 -3 0zM604.5 282 a1.5 1.5 0 1 0 3 0 a1.5 1.5 0 1 0 -3 0z" fill="black"></path><path d="M832.5 114 a1.5 1.5 0 1 0 3 0 a1.5 1.5 0 1 0 -3 0zM808.5 30 a1.5 1.5 0 1 0 3 0 a1.5 1.5 0 1 0 -3 0zM808.5 18 a1.5 1.5 0 1 0 3 0 a1.5 1.5 0 1 0 -3 0z" fill="black"></path><path d="M592.5 306 a1.5 1.5 0 1 0 3 0 a1.5 1.5 0 1 0 -3 0zM604.5 102 a1.5 1.5 0 1 0 3 0 a1.5 1.5 0 1 0 -3 0zM604.5 162 a1.5 1.5 0 1 0 3 0 a1.5 1.5 0 1 0 -3 0zM592.5 258 a1.5 1.5 0 1 0 3 0 a1.5 1.5 0 1 0 -3 0zM604.5 138 a1.5 1.5 0 1 0 3 0 a1.5 1.5 0 1 0 -3 0zM580.5 282 a1.5 1.5 0 1 0 3 0 a1.5 1.5 0 1 0 -3 0zM592.5 234 a1.5 1.5 0 1 0 3 0 a1.5 1.5 0 1 0 -3 0z" fill="black"></path><path d="M856.5 390 a1.5 1.5 0 1 0 3 0 a1.5 1.5 0 1 0 -3 0zM856.5 306 a1.5 1.5 0 1 0 3 0 a1.5 1.5 0 1 0 -3 0zM856.5 222 a1.5 1.5 0 1 0 3 0 a1.5 1.5 0 1 0 -3 0zM868.5 294 a1.5 1.5 0 1 0 3 0 a1.5 1.5 0 1 0 -3 0zM844.5 378 a1.5 1.5 0 1 0 3 0 a1.5 1.5 0 1 0 -3 0zM868.5 414 a1.5 1.5 0 1 0 3 0 a1.5 1.5 0 1 0 -3 0zM880.5 282 a1.5 1.5 0 1 0 3 0 a1.5 1.5 0 1 0 -3 0zM868.5 222 a1.5 1.5 0 1 0 3 0 a1.5 1.5 0 1 0 -3 0zM844.5 366 a1.5 1.5 0 1 0 3 0 a1.5 1.5 0 1 0 -3 0z" fill="black"></path><path d="M604.5 30 a1.5 1.5 0 1 0 3 0 a1.5 1.5 0 1 0 -3 0z" fill="black"></path><path d="M868.5 126 a1.5 1.5 0 1 0 3 0 a1.5 1.5 0 1 0 -3 0z" fill="black"></path><path d="M592.5 54 a1.5 1.5 0 1 0 3 0 a1.5 1.5 0 1 0 -3 0zM592.5 90 a1.5 1.5 0 1 0 3 0 a1.5 1.5 0 1 0 -3 0z" fill="black"></path><path d="M904.5 438 a1.5 1.5 0 1 0 3 0 a1.5 1.5 0 1 0 -3 0zM880.5 474 a1.5 1.5 0 1 0 3 0 a1.5 1.5 0 1 0 -3 0zM868.5 330 a1.5 1.5 0 1 0 3 0 a1.5 1.5 0 1 0 -3 0zM880.5 270 a1.5 1.5 0 1 0 3 0 a1.5 1.5 0 1 0 -3 0zM868.5 186 a1.5 1.5 0 1 0 3 0 a1.5 1.5 0 1 0 -3 0zM928.5 486 a1.5 1.5 0 1 0 3 0 a1.5 1.5 0 1 0 -3 0zM892.5 426 a1.5 1.5 0 1 0 3 0 a1.5 1.5 0 1 0 -3 0zM868.5 246 a1.5 1.5 0 1 0 3 0 a1.5 1.5 0 1 0 -3 0zM904.5 390 a1.5 1.5 0 1 0 3 0 a1.5 1.5 0 1 0 -3 0zM892.5 414 a1.5 1.5 0 1 0 3 0 a1.5 1.5 0 1 0 -3 0z" fill="black"></path><path d="M868.5 90 a1.5 1.5 0 1 0 3 0 a1.5 1.5 0 1 0 -3 0z" fill="black"></path><path d="M592.5 534 a1.5 1.5 0 1 0 3 0 a1.5 1.5 0 1 0 -3 0zM568.5 534 a1.5 1.5 0 1 0 3 0 a1.5 1.5 0 1 0 -3 0zM580.5 462 a1.5 1.5 0 1 0 3 0 a1.5 1.5 0 1 0 -3 0zM568.5 342 a1.5 1.5 0 1 0 3 0 a1.5 1.5 0 1 0 -3 0zM580.5 234 a1.5 1.5 0 1 0 3 0 a1.5 1.5 0 1 0 -3 0zM604.5 450 a1.5 1.5 0 1 0 3 0 a1.5 1.5 0 1 0 -3 0zM568.5 318 a1.5 1.5 0 1 0 3 0 a1.5 1.5 0 1 0 -3 0zM580.5 402 a1.5 1.5 0 1 0 3 0 a1.5 1.5 0 1 0 -3 0zM544.5 294 a1.5 1.5 0 1 0 3 0 a1.5 1.5 0 1 0 -3 0zM556.5 210 a1.5 1.5 0 1 0 3 0 a1.5 1.5 0 1 0 -3 0zM592.5 198 a1.5 1.5 0 1 0 3 0 a1.5 1.5 0 1 0 -3 0zM568.5 522 a1.5 1.5 0 1 0 3 0 a1.5 1.5 0 1 0 -3 0z" fill="black"></path><path d="M904.5 270 a1.5 1.5 0 1 0 3 0 a1.5 1.5 0 1 0 -3 0zM904.5 186 a1.5 1.5 0 1 0 3 0 a1.5 1.5 0 1 0 -3 0zM904.5 138 a1.5 1.5 0 1 0 3 0 a1.5 1.5 0 1 0 -3 0zM916.5 246 a1.5 1.5 0 1 0 3 0 a1.5 1.5 0 1 0 -3 0zM916.5 282 a1.5 1.5 0 1 0 3 0 a1.5 1.5 0 1 0 -3 0zM916.5 138 a1.5 1.5 0 1 0 3 0 a1.5 1.5 0 1 0 -3 0z" fill="black"></path><path d="M532.5 78 a1.5 1.5 0 1 0 3 0 a1.5 1.5 0 1 0 -3 0zM532.5 30 a1.5 1.5 0 1 0 3 0 a1.5 1.5 0 1 0 -3 0zM532.5 54 a1.5 1.5 0 1 0 3 0 a1.5 1.5 0 1 0 -3 0zM544.5 78 a1.5 1.5 0 1 0 3 0 a1.5 1.5 0 1 0 -3 0z" fill="black"></path><path d="M892.5 54 a1.5 1.5 0 1 0 3 0 a1.5 1.5 0 1 0 -3 0z" fill="black"></path><path d="M544.5 6 a1.5 1.5 0 1 0 3 0 a1.5 1.5 0 1 0 -3 0z" fill="black"></path><path d="M904.5 42 a1.5 1.5 0 1 0 3 0 a1.5 1.5 0 1 0 -3 0z" fill="black"></path><path d="M520.5 162 a1.5 1.5 0 1 0 3 0 a1.5 1.5 0 1 0 -3 0zM532.5 162 a1.5 1.5 0 1 0 3 0 a1.5 1.5 0 1 0 -3 0zM508.5 162 a1.5 1.5 0 1 0 3 0 a1.5 1.5 0 1 0 -3 0zM532.5 18 a1.5 1.5 0 1 0 3 0 a1.5 1.5 0 1 0 -3 0z" fill="black"></path><path d="M940.5 258 a1.5 1.5 0 1 0 3 0 a1.5 1.5 0 1 0 -3 0zM916.5 66 a1.5 1.5 0 1 0 3 0 a1.5 1.5 0 1 0 -3 0zM928.5 198 a1.5 1.5 0 1 0 3 0 a1.5 1.5 0 1 0 -3 0zM928.5 282 a1.5 1.5 0 1 0 3 0 a1.5 1.5 0 1 0 -3 0zM928.5 246 a1.5 1.5 0 1 0 3 0 a1.5 1.5 0 1 0 -3 0zM928.5 138 a1.5 1.5 0 1 0 3 0 a1.5 1.5 0 1 0 -3 0z" fill="black"></path><path d="M508.5 66 a1.5 1.5 0 1 0 3 0 a1.5 1.5 0 1 0 -3 0zM496.5 66 a1.5 1.5 0 1 0 3 0 a1.5 1.5 0 1 0 -3 0zM496.5 54 a1.5 1.5 0 1 0 3 0 a1.5 1.5 0 1 0 -3 0z" fill="black"></path><path d="M964.5 270 a1.5 1.5 0 1 0 3 0 a1.5 1.5 0 1 0 -3 0zM952.5 258 a1.5 1.5 0 1 0 3 0 a1.5 1.5 0 1 0 -3 0zM964.5 162 a1.5 1.5 0 1 0 3 0 a1.5 1.5 0 1 0 -3 0zM964.5 138 a1.5 1.5 0 1 0 3 0 a1.5 1.5 0 1 0 -3 0zM976.5 306 a1.5 1.5 0 1 0 3 0 a1.5 1.5 0 1 0 -3 0zM964.5 186 a1.5 1.5 0 1 0 3 0 a1.5 1.5 0 1 0 -3 0zM976.5 246 a1.5 1.5 0 1 0 3 0 a1.5 1.5 0 1 0 -3 0z" fill="black"></path><path d="M508.5 246 a1.5 1.5 0 1 0 3 0 a1.5 1.5 0 1 0 -3 0zM484.5 210 a1.5 1.5 0 1 0 3 0 a1.5 1.5 0 1 0 -3 0zM472.5 138 a1.5 1.5 0 1 0 3 0 a1.5 1.5 0 1 0 -3 0zM520.5 258 a1.5 1.5 0 1 0 3 0 a1.5 1.5 0 1 0 -3 0zM508.5 198 a1.5 1.5 0 1 0 3 0 a1.5 1.5 0 1 0 -3 0zM496.5 42 a1.5 1.5 0 1 0 3 0 a1.5 1.5 0 1 0 -3 0z" fill="black"></path><path d="M952.5 78 a1.5 1.5 0 1 0 3 0 a1.5 1.5 0 1 0 -3 0z" fill="black"></path><path d="M448.5 102 a1.5 1.5 0 1 0 3 0 a1.5 1.5 0 1 0 -3 0zM436.5 114 a1.5 1.5 0 1 0 3 0 a1.5 1.5 0 1 0 -3 0zM472.5 78 a1.5 1.5 0 1 0 3 0 a1.5 1.5 0 1 0 -3 0zM460.5 126 a1.5 1.5 0 1 0 3 0 a1.5 1.5 0 1 0 -3 0z" fill="black"></path><path d="M976.5 174 a1.5 1.5 0 1 0 3 0 a1.5 1.5 0 1 0 -3 0zM952.5 90 a1.5 1.5 0 1 0 3 0 a1.5 1.5 0 1 0 -3 0zM964.5 114 a1.5 1.5 0 1 0 3 0 a1.5 1.5 0 1 0 -3 0zM964.5 102 a1.5 1.5 0 1 0 3 0 a1.5 1.5 0 1 0 -3 0z" fill="black"></path><path d="M424.5 246 a1.5 1.5 0 1 0 3 0 a1.5 1.5 0 1 0 -3 0zM436.5 210 a1.5 1.5 0 1 0 3 0 a1.5 1.5 0 1 0 -3 0zM436.5 246 a1.5 1.5 0 1 0 3 0 a1.5 1.5 0 1 0 -3 0zM436.5 186 a1.5 1.5 0 1 0 3 0 a1.5 1.5 0 1 0 -3 0zM436.5 78 a1.5 1.5 0 1 0 3 0 a1.5 1.5 0 1 0 -3 0zM436.5 150 a1.5 1.5 0 1 0 3 0 a1.5 1.5 0 1 0 -3 0z" fill="black"></path><path d="M1000.5 486 a1.5 1.5 0 1 0 3 0 a1.5 1.5 0 1 0 -3 0zM976.5 234 a1.5 1.5 0 1 0 3 0 a1.5 1.5 0 1 0 -3 0zM988.5 438 a1.5 1.5 0 1 0 3 0 a1.5 1.5 0 1 0 -3 0zM976.5 210 a1.5 1.5 0 1 0 3 0 a1.5 1.5 0 1 0 -3 0zM1000.5 318 a1.5 1.5 0 1 0 3 0 a1.5 1.5 0 1 0 -3 0zM988.5 486 a1.5 1.5 0 1 0 3 0 a1.5 1.5 0 1 0 -3 0zM1012.5 426 a1.5 1.5 0 1 0 3 0 a1.5 1.5 0 1 0 -3 0zM1012.5 486 a1.5 1.5 0 1 0 3 0 a1.5 1.5 0 1 0 -3 0zM1000.5 258 a1.5 1.5 0 1 0 3 0 a1.5 1.5 0 1 0 -3 0zM1024.5 378 a1.5 1.5 0 1 0 3 0 a1.5 1.5 0 1 0 -3 0zM1012.5 450 a1.5 1.5 0 1 0 3 0 a1.5 1.5 0 1 0 -3 0z" fill="black"></path><path d="M412.5 270 a1.5 1.5 0 1 0 3 0 a1.5 1.5 0 1 0 -3 0zM424.5 306 a1.5 1.5 0 1 0 3 0 a1.5 1.5 0 1 0 -3 0zM400.5 210 a1.5 1.5 0 1 0 3 0 a1.5 1.5 0 1 0 -3 0z" fill="black"></path><path d="M1012.5 294 a1.5 1.5 0 1 0 3 0 a1.5 1.5 0 1 0 -3 0zM1012.5 234 a1.5 1.5 0 1 0 3 0 a1.5 1.5 0 1 0 -3 0zM1000.5 246 a1.5 1.5 0 1 0 3 0 a1.5 1.5 0 1 0 -3 0z" fill="black"></path><path d="M400.5 186 a1.5 1.5 0 1 0 3 0 a1.5 1.5 0 1 0 -3 0z" fill="black"></path><path d="M1036.5 474 a1.5 1.5 0 1 0 3 0 a1.5 1.5 0 1 0 -3 0zM1048.5 498 a1.5 1.5 0 1 0 3 0 a1.5 1.5 0 1 0 -3 0zM1024.5 342 a1.5 1.5 0 1 0 3 0 a1.5 1.5 0 1 0 -3 0zM1024.5 318 a1.5 1.5 0 1 0 3 0 a1.5 1.5 0 1 0 -3 0zM1012.5 534 a1.5 1.5 0 1 0 3 0 a1.5 1.5 0 1 0 -3 0zM1012.5 150 a1.5 1.5 0 1 0 3 0 a1.5 1.5 0 1 0 -3 0zM1024.5 366 a1.5 1.5 0 1 0 3 0 a1.5 1.5 0 1 0 -3 0z" fill="black"></path><path d="M376.5 414 a1.5 1.5 0 1 0 3 0 a1.5 1.5 0 1 0 -3 0zM376.5 114 a1.5 1.5 0 1 0 3 0 a1.5 1.5 0 1 0 -3 0zM376.5 354 a1.5 1.5 0 1 0 3 0 a1.5 1.5 0 1 0 -3 0zM412.5 414 a1.5 1.5 0 1 0 3 0 a1.5 1.5 0 1 0 -3 0zM376.5 234 a1.5 1.5 0 1 0 3 0 a1.5 1.5 0 1 0 -3 0zM376.5 378 a1.5 1.5 0 1 0 3 0 a1.5 1.5 0 1 0 -3 0zM376.5 162 a1.5 1.5 0 1 0 3 0 a1.5 1.5 0 1 0 -3 0zM424.5 366 a1.5 1.5 0 1 0 3 0 a1.5 1.5 0 1 0 -3 0zM412.5 306 a1.5 1.5 0 1 0 3 0 a1.5 1.5 0 1 0 -3 0zM376.5 138 a1.5 1.5 0 1 0 3 0 a1.5 1.5 0 1 0 -3 0z" fill="black"></path><path d="M1060.5 510 a1.5 1.5 0 1 0 3 0 a1.5 1.5 0 1 0 -3 0zM1048.5 246 a1.5 1.5 0 1 0 3 0 a1.5 1.5 0 1 0 -3 0zM1048.5 198 a1.5 1.5 0 1 0 3 0 a1.5 1.5 0 1 0 -3 0zM1072.5 498 a1.5 1.5 0 1 0 3 0 a1.5 1.5 0 1 0 -3 0zM1048.5 294 a1.5 1.5 0 1 0 3 0 a1.5 1.5 0 1 0 -3 0zM1084.5 462 a1.5 1.5 0 1 0 3 0 a1.5 1.5 0 1 0 -3 0zM1048.5 270 a1.5 1.5 0 1 0 3 0 a1.5 1.5 0 1 0 -3 0z" fill="black"></path><path d="M364.5 498 a1.5 1.5 0 1 0 3 0 a1.5 1.5 0 1 0 -3 0zM352.5 354 a1.5 1.5 0 1 0 3 0 a1.5 1.5 0 1 0 -3 0zM352.5 426 a1.5 1.5 0 1 0 3 0 a1.5 1.5 0 1 0 -3 0zM352.5 282 a1.5 1.5 0 1 0 3 0 a1.5 1.5 0 1 0 -3 0zM376.5 450 a1.5 1.5 0 1 0 3 0 a1.5 1.5 0 1 0 -3 0zM340.5 390 a1.5 1.5 0 1 0 3 0 a1.5 1.5 0 1 0 -3 0zM376.5 306 a1.5 1.5 0 1 0 3 0 a1.5 1.5 0 1 0 -3 0zM376.5 282 a1.5 1.5 0 1 0 3 0 a1.5 1.5 0 1 0 -3 0zM364.5 258 a1.5 1.5 0 1 0 3 0 a1.5 1.5 0 1 0 -3 0zM352.5 402 a1.5 1.5 0 1 0 3 0 a1.5 1.5 0 1 0 -3 0zM352.5 474 a1.5 1.5 0 1 0 3 0 a1.5 1.5 0 1 0 -3 0z" fill="black"></path><path d="M1060.5 402 a1.5 1.5 0 1 0 3 0 a1.5 1.5 0 1 0 -3 0zM1072.5 246 a1.5 1.5 0 1 0 3 0 a1.5 1.5 0 1 0 -3 0zM1072.5 426 a1.5 1.5 0 1 0 3 0 a1.5 1.5 0 1 0 -3 0zM1048.5 186 a1.5 1.5 0 1 0 3 0 a1.5 1.5 0 1 0 -3 0zM1084.5 450 a1.5 1.5 0 1 0 3 0 a1.5 1.5 0 1 0 -3 0z" fill="black"></path><path d="M352.5 162 a1.5 1.5 0 1 0 3 0 a1.5 1.5 0 1 0 -3 0z" fill="black"></path><path d="M1024.5 18 a1.5 1.5 0 1 0 3 0 a1.5 1.5 0 1 0 -3 0z" fill="black"></path><path d="M400.5 18 a1.5 1.5 0 1 0 3 0 a1.5 1.5 0 1 0 -3 0z" fill="black"></path><path d="M1072.5 198 a1.5 1.5 0 1 0 3 0 a1.5 1.5 0 1 0 -3 0zM1036.5 78 a1.5 1.5 0 1 0 3 0 a1.5 1.5 0 1 0 -3 0z" fill="black"></path><path d="M328.5 282 a1.5 1.5 0 1 0 3 0 a1.5 1.5 0 1 0 -3 0zM340.5 270 a1.5 1.5 0 1 0 3 0 a1.5 1.5 0 1 0 -3 0zM340.5 186 a1.5 1.5 0 1 0 3 0 a1.5 1.5 0 1 0 -3 0z" fill="black"></path><path d="M1072.5 522 a1.5 1.5 0 1 0 3 0 a1.5 1.5 0 1 0 -3 0zM1084.5 342 a1.5 1.5 0 1 0 3 0 a1.5 1.5 0 1 0 -3 0zM1072.5 354 a1.5 1.5 0 1 0 3 0 a1.5 1.5 0 1 0 -3 0zM1108.5 522 a1.5 1.5 0 1 0 3 0 a1.5 1.5 0 1 0 -3 0zM1096.5 534 a1.5 1.5 0 1 0 3 0 a1.5 1.5 0 1 0 -3 0zM1084.5 270 a1.5 1.5 0 1 0 3 0 a1.5 1.5 0 1 0 -3 0zM1108.5 402 a1.5 1.5 0 1 0 3 0 a1.5 1.5 0 1 0 -3 0zM1096.5 498 a1.5 1.5 0 1 0 3 0 a1.5 1.5 0 1 0 -3 0zM1096.5 486 a1.5 1.5 0 1 0 3 0 a1.5 1.5 0 1 0 -3 0zM1084.5 390 a1.5 1.5 0 1 0 3 0 a1.5 1.5 0 1 0 -3 0zM1084.5 378 a1.5 1.5 0 1 0 3 0 a1.5 1.5 0 1 0 -3 0zM1072.5 222 a1.5 1.5 0 1 0 3 0 a1.5 1.5 0 1 0 -3 0z" fill="black"></path><path d="M304.5 534 a1.5 1.5 0 1 0 3 0 a1.5 1.5 0 1 0 -3 0zM328.5 450 a1.5 1.5 0 1 0 3 0 a1.5 1.5 0 1 0 -3 0zM316.5 318 a1.5 1.5 0 1 0 3 0 a1.5 1.5 0 1 0 -3 0zM316.5 534 a1.5 1.5 0 1 0 3 0 a1.5 1.5 0 1 0 -3 0zM292.5 534 a1.5 1.5 0 1 0 3 0 a1.5 1.5 0 1 0 -3 0zM340.5 534 a1.5 1.5 0 1 0 3 0 a1.5 1.5 0 1 0 -3 0zM328.5 390 a1.5 1.5 0 1 0 3 0 a1.5 1.5 0 1 0 -3 0zM304.5 414 a1.5 1.5 0 1 0 3 0 a1.5 1.5 0 1 0 -3 0zM292.5 282 a1.5 1.5 0 1 0 3 0 a1.5 1.5 0 1 0 -3 0zM328.5 534 a1.5 1.5 0 1 0 3 0 a1.5 1.5 0 1 0 -3 0zM316.5 282 a1.5 1.5 0 1 0 3 0 a1.5 1.5 0 1 0 -3 0zM280.5 498 a1.5 1.5 0 1 0 3 0 a1.5 1.5 0 1 0 -3 0z" fill="black"></path><path d="M292.5 246 a1.5 1.5 0 1 0 3 0 a1.5 1.5 0 1 0 -3 0zM304.5 162 a1.5 1.5 0 1 0 3 0 a1.5 1.5 0 1 0 -3 0zM304.5 258 a1.5 1.5 0 1 0 3 0 a1.5 1.5 0 1 0 -3 0z" fill="black"></path><path d="M1120.5 414 a1.5 1.5 0 1 0 3 0 a1.5 1.5 0 1 0 -3 0zM1108.5 330 a1.5 1.5 0 1 0 3 0 a1.5 1.5 0 1 0 -3 0zM1108.5 282 a1.5 1.5 0 1 0 3 0 a1.5 1.5 0 1 0 -3 0zM1084.5 138 a1.5 1.5 0 1 0 3 0 a1.5 1.5 0 1 0 -3 0zM1084.5 114 a1.5 1.5 0 1 0 3 0 a1.5 1.5 0 1 0 -3 0z" fill="black"></path><path d="M292.5 318 a1.5 1.5 0 1 0 3 0 a1.5 1.5 0 1 0 -3 0zM292.5 354 a1.5 1.5 0 1 0 3 0 a1.5 1.5 0 1 0 -3 0zM304.5 102 a1.5 1.5 0 1 0 3 0 a1.5 1.5 0 1 0 -3 0zM292.5 270 a1.5 1.5 0 1 0 3 0 a1.5 1.5 0 1 0 -3 0zM280.5 306 a1.5 1.5 0 1 0 3 0 a1.5 1.5 0 1 0 -3 0z" fill="black"></path><path d="M1144.5 414 a1.5 1.5 0 1 0 3 0 a1.5 1.5 0 1 0 -3 0zM1108.5 258 a1.5 1.5 0 1 0 3 0 a1.5 1.5 0 1 0 -3 0zM1132.5 186 a1.5 1.5 0 1 0 3 0 a1.5 1.5 0 1 0 -3 0zM1132.5 282 a1.5 1.5 0 1 0 3 0 a1.5 1.5 0 1 0 -3 0zM1132.5 210 a1.5 1.5 0 1 0 3 0 a1.5 1.5 0 1 0 -3 0zM1084.5 66 a1.5 1.5 0 1 0 3 0 a1.5 1.5 0 1 0 -3 0zM1096.5 162 a1.5 1.5 0 1 0 3 0 a1.5 1.5 0 1 0 -3 0zM1084.5 102 a1.5 1.5 0 1 0 3 0 a1.5 1.5 0 1 0 -3 0zM1120.5 186 a1.5 1.5 0 1 0 3 0 a1.5 1.5 0 1 0 -3 0zM1132.5 438 a1.5 1.5 0 1 0 3 0 a1.5 1.5 0 1 0 -3 0z" fill="black"></path><path d="M268.5 342 a1.5 1.5 0 1 0 3 0 a1.5 1.5 0 1 0 -3 0zM268.5 402 a1.5 1.5 0 1 0 3 0 a1.5 1.5 0 1 0 -3 0zM244.5 306 a1.5 1.5 0 1 0 3 0 a1.5 1.5 0 1 0 -3 0zM232.5 318 a1.5 1.5 0 1 0 3 0 a1.5 1.5 0 1 0 -3 0zM268.5 186 a1.5 1.5 0 1 0 3 0 a1.5 1.5 0 1 0 -3 0zM268.5 114 a1.5 1.5 0 1 0 3 0 a1.5 1.5 0 1 0 -3 0zM268.5 162 a1.5 1.5 0 1 0 3 0 a1.5 1.5 0 1 0 -3 0zM316.5 42 a1.5 1.5 0 1 0 3 0 a1.5 1.5 0 1 0 -3 0z" fill="black"></path></mask></defs></svg>